# xmcd
#
# Track frame offsets: 
#        150
#        17136
#        28167
#        46269
#        57529
#        78849
#        99602
#        113491
#        125768
#        146228
#
# Disc length: 2067 seconds
#
# Revision: 2
# Processed by: cddbd v1.5.2PL0 Copyright (c) Steve Scherf et al.
# Submitted via: ExactAudioCopy v1.0b4
#
DISCID=8808110a
DTITLE=Eric Sardinas And Big Motor - Boomerang
DYEAR=2014
DGENRE=Blues-Rock
TTITLE0=Run Devil Run
TTITLE1=Boomerang
TTITLE2=Tell Me You're Mine
TTITLE3=Mornig Glory
TTITLE4=Bad Boy Blues
TTITLE5=If You Don't Love Me
TTITLE6=Trouble
TTITLE7=Long Gone
TTITLE8=How Many More Years
TTITLE9=Heavy Loaded
EXTD=
EXTT0=
EXTT1=
EXTT2=
EXTT3=
EXTT4=
EXTT5=
EXTT6=
EXTT7=
EXTT8=
EXTT9=
PLAYORDER=
